<svg id="Calque_1" data-name="Calque 1" xmlns="http://www.w3.org/2000/svg" viewBox="0 0 425.45 429.53"><defs><style>.cls-1,.cls-2{fill:#fad009;}.cls-1{fill-rule:evenodd;}.cls-3{fill:#fff;}.cls-4{fill:#333;}.cls-5{fill:#eac31d;}.cls-6{fill:#f8dc03;}.cls-7{fill:#e3c221;}</style></defs><title>lm3alam wha</title><path class="cls-1" d="M364.36,416.67a34.13,34.13,0,0,0-2.76,62c-2.72,55.17-2.42,55.77-10.05,108.75a34.17,34.17,0,0,0-6.2,60.62l3.2-28.14L376.19,623l-3.39,29.22a34.16,34.16,0,0,0,5.56-63.81c1.57-53.56,2.88-54.32,10-107.79a34.18,34.18,0,0,0,3.79-63l-2.09,29.21L362.37,445Z" transform="translate(-88.27 -222.69)"/><path class="cls-2" d="M428.85,622.87l1.55-7.31a7.44,7.44,0,0,1,6.71-5.88l12.15-.93h0s56.83-36.18,33.63-85.66c0,0,.44,33.68-19.07,39.65-4.36,1.33-10.46-.64-13.46-4.07l-8.15-9.31-25.45,22.29.21.24a24.13,24.13,0,0,1,5.46,20.89l0,.11a7.43,7.43,0,0,1-6.71,5.88l-7.45.57L401,605.68l20.62,23.54Z" transform="translate(-88.27 -222.69)"/><path class="cls-2" d="M416.19,559.72,349.13,487.4q2.78-2.68,5.7-5.25,5.52-4.83,11.35-9l62.63,75.28Z" transform="translate(-88.27 -222.69)"/><path class="cls-3" d="M513.6,373H88.39a.12.12,0,0,0-.12.11v12.78A11.47,11.47,0,0,0,98.94,397.3l22.56,1.57c5.27.37,9.08,19.77,4.36,22.09l-20.3,10A11.47,11.47,0,0,0,100,445.59l8.16,20a11.48,11.48,0,0,0,14.21,6.56L144,465c4.94-1.63,16.75,16.14,13.34,20.07l-15,17.2a11.47,11.47,0,0,0,.55,15.63l15.24,15.25a11.47,11.47,0,0,0,15.64.54l17-14.82c4-3.46,20.41,7.52,18.72,12.51l-7.29,21.44a11.48,11.48,0,0,0,6.42,14.27l19.89,8.34A11.46,11.46,0,0,0,243.3,570l10.26-20.33c2.34-4.65,23.26-.47,23.63,4.75l1.59,22.72a11.45,11.45,0,0,0,11.43,10.67h21.57a11.47,11.47,0,0,0,11.44-10.67l1.58-22.56c.36-5.26,19.76-9.08,22.08-4.36l10,20.31a11.46,11.46,0,0,0,14.62,5.54l20-8.16A11.47,11.47,0,0,0,398,553.7l-7.14-21.65c-1.62-4.91,16.18-16.72,20.07-13.34l17.2,14.95a11.45,11.45,0,0,0,15.63-.54L459,517.87a11.45,11.45,0,0,0,.54-15.63l-14.84-17.07c-3.45-4,7.51-20.41,12.41-18.74l21.56,7.32A11.47,11.47,0,0,0,493,467.33l8.34-19.88a11.47,11.47,0,0,0-5.41-14.68l-20.33-10.25c-4.65-2.35-.48-23.27,4.75-23.63l22.72-1.59a11.47,11.47,0,0,0,10.67-11.44V373.08A.11.11,0,0,0,513.6,373Z" transform="translate(-88.27 -222.69)"/><path class="cls-3" d="M217.56,330.32c-8.77,11-20.25,16.43-34.28,16.43s-25.36-5.43-34.12-16.43H142.3c-12.6,0-19,6.7-19,20.09,0,1.12.16,44,.32,45.14H98.93c-.16-1.12-.16-44-.16-45.14q0-41.37,41.14-43.53a26.9,26.9,0,0,1-.16-3.67,43.55,43.55,0,0,1,43.53-43.53A43.57,43.57,0,0,1,227,303.21a29.34,29.34,0,0,1-.16,3.67h11.48v23.44ZM113,307a30.67,30.67,0,0,0-3.83-.16H113Zm70.32,15.15c12.59,0,19-6.38,19-19s-6.38-19-19-19-19,6.38-19,19S170.68,322.19,183.28,322.19Z" transform="translate(-88.27 -222.69)"/><path class="cls-3" d="M243.38,306.88V222.69h23.28v84.19h11.48v23.44H231.9V306.88Z" transform="translate(-88.27 -222.69)"/><path class="cls-3" d="M271.92,330.32V306.88H283.4v-3.67a43.55,43.55,0,0,1,43.53-43.53,42.81,42.81,0,0,1,25,8l-12.44,21.52a18.52,18.52,0,0,0-12.59-4.78c-12.6,0-19,6.22-19,18.81a26,26,0,0,0,.32,3.67h55.17v23.44Z" transform="translate(-88.27 -222.69)"/><path class="cls-3" d="M446.19,330.32c-8.77,11-20.25,16.43-34.29,16.43s-25.35-5.43-34.12-16.43H357.05V306.88h11.49a27.63,27.63,0,0,1-.17-3.67,43.61,43.61,0,0,1,87.22,0,31.28,31.28,0,0,1-.15,3.67h11.48v23.44Zm-34.29-8.13c12.6,0,19-6.38,19-19s-6.38-19-19-19-18.81,6.38-18.81,19S399.31,322.19,411.9,322.19Z" transform="translate(-88.27 -222.69)"/><path class="cls-3" d="M460.53,306.88h11.64V222.69h23.12V330.32H460.53Z" transform="translate(-88.27 -222.69)"/><rect class="cls-4" x="204.05" y="195.94" width="10.23" height="9.34"/><rect class="cls-4" x="190.36" y="195.94" width="10.23" height="9.34"/><path class="cls-5" d="M132.21,266.16h6.66a0,0,0,0,1,0,0v20.26a0,0,0,0,1,0,0H130.3a0,0,0,0,1,0,0V268.08A1.91,1.91,0,0,1,132.21,266.16Z" transform="translate(-171.45 -163.27) rotate(-19.15)"/><path class="cls-5" d="M203.27,240.83h8.57a0,0,0,0,1,0,0v20.26a0,0,0,0,1,0,0h-6.66a1.91,1.91,0,0,1-1.91-1.91V240.83A0,0,0,0,1,203.27,240.83Z" transform="translate(397.66 197.27) rotate(160.85)"/><path class="cls-2" d="M212.43,258.94c-.08-.26-.16-.53-.25-.79a40.63,40.63,0,0,0-76.77,26.65c.09.27.19.52.29.78Z" transform="translate(-88.27 -222.69)"/><path class="cls-5" d="M150.15,238.43l13,37.6,21.73-7.54-13.06-37.6a40.63,40.63,0,0,0-21.72,7.54Z" transform="translate(-88.27 -222.69)"/><path class="cls-6" d="M127.25,271.81h96a1.17,1.17,0,0,1,1.17,1.17v6.11a.58.58,0,0,1-.58.58H126.67a.58.58,0,0,1-.58-.58V273a1.17,1.17,0,0,1,1.17-1.17Z" transform="translate(-169.01 -149.95) rotate(-19.15)"/><path class="cls-7" d="M215.86,267.88l-77.31,26.85a2.21,2.21,0,0,1-2.8-1.36h0l81.47-28.28h0A2.19,2.19,0,0,1,215.86,267.88Z" transform="translate(-88.27 -222.69)"/><path class="cls-6" d="M156.85,228.94h13.32a.47.47,0,0,1,.47.47v23.77a1.59,1.59,0,0,1-1.59,1.59H158a1.59,1.59,0,0,1-1.59-1.59V229.41a.47.47,0,0,1,.47-.47Z" transform="translate(-158.55 -155.69) rotate(-19.15)"/><path class="cls-2" d="M149.58,457.31c-5-8-8.05-20.15-7.57-29.29.52-9.62,7-22,14.55-28,8.62-6.81,19.83-11.14,31.19-10.27l3.31.24c-.51,10.31-.77,15.47-1.28,25.78a22.84,22.84,0,0,0-3.33-.6c-12.54-1.76-20.69,5.66-21.38,18.16a37.22,37.22,0,0,0,.1,3.88c23.54,5,47.07,8.77,71,11.5q1.48-50.22,2.95-100.43l22.93-.45q-1,51.48-1.93,103c4.7.32,7.06.46,11.76.7q-.19,14.43-.38,28.86A578.3,578.3,0,0,1,149.58,457.31Zm76.65-37.92c-10.33-.86-15.49-1.36-25.76-2.53a13.77,13.77,0,0,1-.44-4.55c.71-14.09,12.42-23.34,26.57-22.32l-.3,8.6c-6.52-.36-17.45,2-17.83,11.11,7.2.65,10.81.94,18,1.46C226.4,414.45,226.34,416.1,226.23,419.39Z" transform="translate(-88.27 -222.69)"/><path class="cls-2" d="M265.33,451.11c18.73.95,37.36,1.27,56.11,1l-.51-59.19c10.32-.23,15.48-.39,25.79-.81Q347.61,436,348.5,480a609.57,609.57,0,0,1-83.64-.11Q265.1,465.47,265.33,451.11ZM280,530.81l.27-29.22c10.84.67,16.26.85,27.1.88q0,14.74.07,29.48C296.41,531.87,290.92,531.64,280,530.81Zm36.76,1.1-.18-29.5c10.83-.18,16.25-.42,27.05-1.24l.53,29.36C333.18,531.46,327.69,531.74,316.71,531.91Z" transform="translate(-88.27 -222.69)"/><path class="cls-2" d="M403.72,444.72c.1-1.53.14-3.12.14-4.38,0-12.56-8.05-23-21.34-21.76a19.59,19.59,0,0,0-3.37.5q-.47-14.22-.95-28.45l3.33-.21c11.82-.82,23.06,4.22,31.26,12.49,8.82,8.91,14.48,21.46,14.47,33.51,0,12.49-2.61,21.06-7.93,33a501.32,501.32,0,0,1-57.64,9.32q-.37-14.44-.74-28.89C375.27,448.49,389.49,446.78,403.72,444.72Z" transform="translate(-88.27 -222.69)"/><path class="cls-2" d="M435,344.66c9-.16,13.58-.24,22.63-.38q3.49,56.45,7,112.89c-9.13,2.94-13.74,4.29-23,6.79Q438.35,404.31,435,344.66Z" transform="translate(-88.27 -222.69)"/><rect class="cls-4" x="120.64" y="150.49" width="10.22" height="9.34"/><path class="cls-4" d="M232.64,384h-9v19.19c0,6-3.54,9-9.53,9-6.38,0-9.6-3.21-9.6-9.59a9.51,9.51,0,0,1,1.83-5.62L200,390.61a18.6,18.6,0,0,0,14.14,30.67A17.48,17.48,0,0,0,230.18,412h7.07v-9.27h-4.61Z" transform="translate(-88.27 -222.69)"/><rect class="cls-4" x="299.4" y="195.94" width="10.22" height="9.34"/><rect class="cls-4" x="295.29" y="180.03" width="2.53" height="9.28"/><polygon class="cls-4" points="207.08 180.03 207.08 161.35 196.86 161.35 196.86 180.03 169.82 180.03 169.82 189.31 295.29 189.31 295.29 180.03 207.08 180.03"/><polygon class="cls-4" points="299.46 161.29 299.46 180.03 297.82 180.03 297.82 189.31 309.62 189.31 309.62 161.29 299.46 161.29"/></svg>