<svg xmlns="http://www.w3.org/2000/svg" xmlns:xlink="http://www.w3.org/1999/xlink" width="512" height="118" viewBox="0 0 512 118">
  <defs>
    <clipPath id="clip-path">
      <rect id="Rectangle_1" data-name="Rectangle 1" width="512" height="118" transform="translate(453 408)" fill="#fff" stroke="#707070" stroke-width="1"/>
    </clipPath>
  </defs>
  <g id="Groupe_de_masques_1" data-name="Groupe de masques 1" transform="translate(-453 -408)" clip-path="url(#clip-path)">
    <g id="noun_settings_check_mark_440557" data-name="noun_settings check mark_440557" transform="translate(866.273 466.348) rotate(-21)">
      <path id="Tracé_1" data-name="Tracé 1" d="M37.652,58.673a21.668,21.668,0,0,1,.854-5.983A12.681,12.681,0,1,1,54.195,37.576a21.606,21.606,0,0,1,21.973,7.238,2.133,2.133,0,0,0,.1-.4,31.89,31.89,0,0,0,0-7.894,2.784,2.784,0,0,0-2.675-2.333H66.9a3.26,3.26,0,0,1-2.985-1.833c-.351-1.01-.829-4.246.085-5.16l4.728-4.727a2.636,2.636,0,0,0,.157-3.473l-5.562-5.565a2.635,2.635,0,0,0-3.473.154l-4.728,4.731a3.247,3.247,0,0,1-3.389.819c-.948-.463-3.6-2.423-3.6-3.72V8.723A2.786,2.786,0,0,0,45.8,6.047a31.487,31.487,0,0,0-7.9,0A2.781,2.781,0,0,0,35.57,8.723v6.69A3.27,3.27,0,0,1,33.737,18.4c-1.013.347-4.244.825-5.159-.091l-4.732-4.727a2.629,2.629,0,0,0-3.469-.154l-5.563,5.559a2.633,2.633,0,0,0,.154,3.473L19.7,27.193a3.235,3.235,0,0,1,.821,3.387c-.463.946-2.425,3.605-3.719,3.605H10.108a2.784,2.784,0,0,0-2.675,2.333,31.858,31.858,0,0,0,0,7.889,2.786,2.786,0,0,0,2.675,2.333H16.8a3.271,3.271,0,0,1,2.989,1.833c.346,1.009.829,4.246-.09,5.158l-4.728,4.729a2.627,2.627,0,0,0-.154,3.472L20.372,67.5a2.632,2.632,0,0,0,3.474-.157l4.727-4.726a3.247,3.247,0,0,1,3.386-.822c.951.464,3.606,2.422,3.606,3.719V72.2A2.793,2.793,0,0,0,37.9,74.877a32.743,32.743,0,0,0,3.95.245c1.286,0,2.444-.087,3.167-.158A21.686,21.686,0,0,1,37.652,58.673Z" transform="translate(-1.294 0)" fill="#dfdfdf"/>
      <path id="Tracé_2" data-name="Tracé 2" d="M66.6,48.772A17.782,17.782,0,1,0,84.38,66.553,17.782,17.782,0,0,0,66.6,48.772Zm-1.55,25.389-7.612-7.613L60.6,63.387l4.451,4.452,8.9-8.9L77.113,62.1Z" transform="translate(-8.79 -7.738)" fill="#dfdfdf"/>
      <text id="Created_by_Rafael_Garcia_Motta" data-name="Created by Rafael Garcia Motta" transform="translate(0 94.237)" fill="#dfdfdf" font-size="3" font-family="Arial-BoldMT, Arial" font-weight="700"><tspan x="0" y="0">Created by Rafael Garcia Motta</tspan></text>
      <text id="from_the_Noun_Project" data-name="from the Noun Project" transform="translate(0 98.337)" fill="#dfdfdf" font-size="3" font-family="Arial-BoldMT, Arial" font-weight="700"><tspan x="0" y="0">from the Noun Project</tspan></text>
    </g>
  </g>
</svg>
