<svg xmlns="http://www.w3.org/2000/svg" xmlns:xlink="http://www.w3.org/1999/xlink" width="512" height="118" viewBox="0 0 512 118">
  <defs>
    <clipPath id="clip-path">
      <rect id="Rectangle_1" data-name="Rectangle 1" width="512" height="118" transform="translate(441 251)" fill="#fff" stroke="#707070" stroke-width="1"/>
    </clipPath>
  </defs>
  <g id="Groupe_de_masques_1" data-name="Groupe de masques 1" transform="translate(-441 -251)" clip-path="url(#clip-path)">
    <g id="Groupe_1" data-name="Groupe 1" transform="matrix(0.966, -0.259, 0.259, 0.966, 851.493, 328.541)">
      <path id="Tracé_1" data-name="Tracé 1" d="M85.473,119.861a11.283,11.283,0,1,0-12.945,0,19.549,19.549,0,0,0-6.668,3.911,25.3,25.3,0,0,0-9.152-4.986,14.294,14.294,0,1,0-14.783,0,25.509,25.509,0,0,0-9.054,4.928,19.709,19.709,0,0,0-6.59-3.833,11.283,11.283,0,1,0-12.945,0A19.805,19.805,0,0,0,0,138.595v1.291a.084.084,0,0,0,.078.078H23.994a26.3,26.3,0,0,0-.215,3.3v1.33a10.4,10.4,0,0,0,10.4,10.4h30.31a10.4,10.4,0,0,0,10.4-10.4v-1.33a26.3,26.3,0,0,0-.215-3.3H98.751a.084.084,0,0,0,.078-.078v-1.291A19.881,19.881,0,0,0,85.473,119.861Zm-14.627-9.249a8.154,8.154,0,1,1,8.311,8.154h-.313A8.142,8.142,0,0,1,70.846,110.612Zm-32.734-4.067a11.166,11.166,0,1,1,11.811,11.146H48.632A11.182,11.182,0,0,1,38.112,106.544ZM11.6,110.612a8.154,8.154,0,1,1,8.311,8.154h-.313A8.155,8.155,0,0,1,11.6,110.612Zm12.945,26.2H3.168a16.708,16.708,0,0,1,16.465-14.92h.235a16.534,16.534,0,0,1,10.657,3.97A25.675,25.675,0,0,0,24.541,136.815ZM71.726,144.6a7.286,7.286,0,0,1-7.274,7.274H34.142a7.286,7.286,0,0,1-7.274-7.274v-1.33a22.463,22.463,0,0,1,21.764-22.429c.215.02.45.02.665.02s.45,0,.665-.02a22.463,22.463,0,0,1,21.764,22.429Zm2.327-7.783a25.608,25.608,0,0,0-5.925-10.872,16.614,16.614,0,0,1,10.755-4.048h.235a16.708,16.708,0,0,1,16.465,14.92Z" transform="translate(0 -92.25)" fill="#fff"/>
    </g>
  </g>
</svg>
