<svg xmlns="http://www.w3.org/2000/svg" xmlns:xlink="http://www.w3.org/1999/xlink" width="511" height="267" viewBox="0 0 511 267">
  <defs>
    <clipPath id="clip-path">
      <rect id="Rectangle_2" data-name="Rectangle 2" width="511" height="267" transform="translate(437 235)" fill="#dfdfdf" stroke="#707070" stroke-width="1"/>
    </clipPath>
  </defs>
  <g id="Groupe_de_masques_1" data-name="Groupe de masques 1" transform="translate(-437 -235)" clip-path="url(#clip-path)">
    <g id="artisan" transform="translate(712.456 334.964) rotate(-13)">
      <g id="Groupe_6" data-name="Groupe 6" transform="translate(46.57 173.679)">
        <g id="Groupe_5" data-name="Groupe 5">
          <g id="Groupe_4" data-name="Groupe 4">
            <g id="Groupe_3" data-name="Groupe 3">
              <g id="Groupe_2" data-name="Groupe 2">
                <g id="Groupe_1" data-name="Groupe 1">
                  <circle id="Ellipse_1" data-name="Ellipse 1" cx="3.209" cy="3.209" r="3.209" fill="#dfdfdf"/>
                </g>
              </g>
            </g>
          </g>
        </g>
      </g>
      <path id="Tracé_1" data-name="Tracé 1" d="M208.313,126.9l-6.294-4.174h0a5.678,5.678,0,0,0-7.767,1.432l-4.2-2.784a8.679,8.679,0,0,0-3.691-9.091l-13.592-9.014c-12.808-8.494-24.835-8.058-33.869,1.227a5.607,5.607,0,0,0,4.246,9.492c5.261,0,7.869,1.148,8.555,2.232.711,1.123-.11,3.224-.661,4.377a7.244,7.244,0,0,0,1.447,8.219l-3.221,4.522c-4.077-1.926-6.5-2.044-13.852-3.936v-.423a5.966,5.966,0,0,0-4.955-5.89l-8.834-1.534a5.95,5.95,0,0,0-6.263,3.029l-8.062-1.937a7.7,7.7,0,0,1-1.151-3.839v-12.2a36.287,36.287,0,0,0,15.9-27.01,9.54,9.54,0,0,0,8.962-9.587l-.03-7.179a9.609,9.609,0,0,0-2.732-6.662,49.71,49.71,0,0,0,2.761-14.813,12.376,12.376,0,0,0-3.21-8.337.4.4,0,0,1-.111-.27,14.877,14.877,0,0,0-9.218-13.9.859.859,0,0,1-.479-.6,12.259,12.259,0,0,0-10.805-9.185A12.174,12.174,0,0,0,93.672,4.04a.469.469,0,0,1-.5-.131,13.331,13.331,0,0,0-18.865,0,.471.471,0,0,1-.495.131A12.174,12.174,0,0,0,60.3,9.072a12.26,12.26,0,0,0-10.805,9.185.859.859,0,0,1-.478.6,14.876,14.876,0,0,0-9.218,13.9.406.406,0,0,1-.111.27,12.378,12.378,0,0,0-3.21,8.337A50,50,0,0,0,39.308,56.4a9.562,9.562,0,0,0-2.834,6.851l.03,7.179a9.522,9.522,0,0,0,9.041,9.511,36.248,36.248,0,0,0,15.791,26.64v12.239a7.7,7.7,0,0,1-1.151,3.839l-8.061,1.937a5.951,5.951,0,0,0-6.263-3.029l-8.834,1.534a5.967,5.967,0,0,0-4.955,5.89v.423l-8.454,2.031a27.891,27.891,0,0,0-21.441,27.2V198.71a11.77,11.77,0,0,0,11.757,11.757H153.553a11.771,11.771,0,0,0,11.758-11.758V158.638a27.792,27.792,0,0,0-1.528-9.1l5.709-9.266a7.358,7.358,0,0,0,8.946-.709l3.918,2.6a5.682,5.682,0,0,0,1.932,7.3l6.294,4.174a5.688,5.688,0,0,0,7.889-1.6l11.439-17.249a5.7,5.7,0,0,0-1.6-7.888Zm-72.9,8.843c6.339,1.584,7.713,1.693,10.2,2.716l-10.2,14.325Zm-14.625-8.075,8.459,1.469v32.3l-.417.586c-1.583-.333-2.145-.145-8.043-.2V127.673Zm-14.473,1.084,5.914,1.421-6.537,9.963c-5.219,7.958-14.438,3.58-15.611,3.561Zm-4.853-3.911L83.744,141.159,66.023,124.845a13.571,13.571,0,0,0,1.479-6.03v-8.679a39.2,39.2,0,0,0,16.4,3.631h.07a39.231,39.231,0,0,0,16.01-3.6v8.647a13.572,13.572,0,0,0,1.479,6.031Zm-55.5-92.109a8.736,8.736,0,0,1,5.4-8.175,6.965,6.965,0,0,0,4.1-4.765,6.083,6.083,0,0,1,5.861-4.6,3.32,3.32,0,0,0,3.615-1.8,6.035,6.035,0,0,1,7.169-3.43A6.625,6.625,0,0,0,78.815,8.12a7.208,7.208,0,0,1,9.858,0,6.629,6.629,0,0,0,6.708,1.844,6.035,6.035,0,0,1,7.169,3.43,3.075,3.075,0,0,0,3.089,1.829,6.06,6.06,0,0,1,6.387,4.574,6.966,6.966,0,0,0,4.1,4.764,8.738,8.738,0,0,1,5.4,8.175,6.555,6.555,0,0,0,1.71,4.439h0a6.223,6.223,0,0,1,1.61,4.193,44.109,44.109,0,0,1-2.512,13.051,31.26,31.26,0,0,0-10.464,2.019l.053-12.751A13.255,13.255,0,0,0,98.813,30.332a19.863,19.863,0,0,0-6.091.923c-11.413,3.669-17.505-.924-23.926-.924h-.114A13.255,13.255,0,0,0,55.561,43.688l.053,12.751A31.244,31.244,0,0,0,45.148,54.42a43.913,43.913,0,0,1-2.51-13.051c0-4.186,3.34-4.318,3.322-8.633Zm5.555,44.038a3.083,3.083,0,0,0-3.081-3h-.014L46,73.781h-.014A3.355,3.355,0,0,1,42.669,70.4l-.03-7.178A3.4,3.4,0,0,1,43.9,60.553c3.665.056,9.059.794,10.678,2.4a4.235,4.235,0,0,0,7.213-3.036l-.067-16.251A7.083,7.083,0,0,1,68.885,36.5c4.971,0,12.594,4.849,25.723.628A14.3,14.3,0,0,1,98.78,36.5a7.084,7.084,0,0,1,6.982,7.165l-.068,16.25a4.235,4.235,0,0,0,7.213,3.036c1.657-1.641,7.319-2.383,10.995-2.4a3.431,3.431,0,0,1,.917,2.32l.03,7.179a3.362,3.362,0,0,1-3.3,3.41l-2.421.01a3.083,3.083,0,0,0-3.069,3.03c-.314,18.458-15.6,30.829-32.142,31.1-16.453-.131-31.928-12.277-32.4-30.826Zm9.654,51.983L77.4,143.7c-1.306.022-10.363,4.439-15.612-3.561l-6.537-9.963Zm-8.309,9.01,3.777,5.756a16.955,16.955,0,0,0,14.156,7.63c3.223,0,4.666-.76,12.95-2.634,8.317,1.881,9.728,2.634,12.951,2.634a16.955,16.955,0,0,0,14.155-7.63l3.777-5.757v24.063H52.862Zm-31.207,54.4V204.3H13.935a5.6,5.6,0,0,1-5.593-5.593V158.638a21.744,21.744,0,0,1,16.716-21.206l7.014-1.685v5.12a3.083,3.083,0,0,0,6.165,0V129.142l8.459-1.469v34.156H40.674a9.4,9.4,0,0,0-2.437.321v-6.872a3.083,3.083,0,0,0-6.165,0v12.4a9.358,9.358,0,0,0-.413,1.335,16.6,16.6,0,0,1-3.988,7.662A22.9,22.9,0,0,0,21.654,192.167ZM139.668,204.3h-9.631l9.346-15.168a16.715,16.715,0,0,1,.285,3.032Zm-16.872,0H106.29l6.866-9.638a3.082,3.082,0,0,0-5.021-3.577L98.721,204.3h-70.9V192.168c0-10.6,7.391-10.84,9.855-21.8a3.081,3.081,0,0,1,3-2.369h83.911L116.56,179.26a3.082,3.082,0,1,0,5.021,3.577l19.022-26.7,8.43,5.591L122.8,204.3Zm36.349-5.593a5.6,5.6,0,0,1-5.593,5.593h-7.72V192.167A22.963,22.963,0,0,0,143.6,182.3l15.494-25.145c.107,1.592.032-.8.056,41.556Zm-6.876-42.238-8.087-5.364,13.362-18.758,6.807,4.514Zm22.223-21.7a1.186,1.186,0,0,1-1.642.333L157.01,124.6a1.068,1.068,0,0,1-.407-1.333c1.96-4.09,2.064-7.569.311-10.338-2.022-3.194-6.259-4.9-12.6-5.083,6.767-6.164,15.189-5.975,25.055.568l13.592,9.014a2.527,2.527,0,0,1,.747,3.451l-.006.008c-.021.032-.04.064-.059.1Zm7.543-.22,5.108-7.7,3.692,2.448-5.108,7.7Zm11.56,13.689-5.5-3.65,10.915-16.458,5.5,3.65Z" transform="translate(0 0)" fill="#dfdfdf"/>
    </g>
  </g>
</svg>
