<svg id="Calque_1" data-name="Calque 1" xmlns="http://www.w3.org/2000/svg" viewBox="0 0 247.8 250.18"><defs><style>.cls-1,.cls-2{fill:#fad009;}.cls-1{fill-rule:evenodd;}.cls-3{fill:#333;}.cls-4{fill:#fff;}.cls-5{fill:#eac31d;}.cls-6{fill:#f8dc03;}.cls-7{fill:#e3c221;}</style></defs><title>lm3lam black</title><path class="cls-1" d="M327.37,425.93a19.88,19.88,0,0,0-1.61,36.1c-1.59,32.13-1.41,32.48-5.86,63.34a19.9,19.9,0,0,0-3.61,35.31l1.86-16.39,16.1,1.82-2,17A19.9,19.9,0,0,0,335.52,526c.91-31.19,1.68-31.63,5.84-62.78a19.91,19.91,0,0,0,2.21-36.69l-1.22,17-16.14-1.09Z" transform="translate(-166.56 -312.95)"/><path class="cls-2" d="M364.93,546l.9-4.26a4.34,4.34,0,0,1,3.91-3.43l7.08-.54h0s33.1-21.08,19.59-49.9c0,0,.26,19.62-11.1,23.1a8.35,8.35,0,0,1-7.85-2.37l-4.74-5.42-14.82,13,.12.14a14,14,0,0,1,3.17,12.16v.07a4.34,4.34,0,0,1-3.91,3.42l-4.34.33L348.7,536l12,13.71Z" transform="translate(-166.56 -312.95)"/><path class="cls-2" d="M357.55,509.25l-39.06-42.12q1.62-1.56,3.32-3.06c2.14-1.87,4.36-3.63,6.61-5.26l36.49,43.85Z" transform="translate(-166.56 -312.95)"/><path class="cls-3" d="M414.29,400.48H166.62a.06.06,0,0,0-.06.06V408a6.68,6.68,0,0,0,6.21,6.66l13.14.92c3.07.21,5.29,11.51,2.54,12.86l-11.83,5.83a6.69,6.69,0,0,0-3.23,8.52l4.76,11.62a6.67,6.67,0,0,0,8.27,3.82L199,454.07c2.87-.95,9.75,9.4,7.77,11.68l-8.71,10a6.69,6.69,0,0,0,.31,9.11l8.89,8.88a6.68,6.68,0,0,0,9.1.32l9.93-8.64c2.32-2,11.89,4.38,10.91,7.29L233,505.22a6.69,6.69,0,0,0,3.74,8.31l11.59,4.86a6.68,6.68,0,0,0,8.54-3.15l6-11.85c1.36-2.7,13.55-.27,13.76,2.77l.92,13.23a6.69,6.69,0,0,0,6.67,6.22h12.56a6.68,6.68,0,0,0,6.66-6.22l.92-13.14c.21-3.06,11.51-5.28,12.86-2.53L323,515.54a6.67,6.67,0,0,0,8.52,3.23L343.16,514a6.69,6.69,0,0,0,3.81-8.28l-4.15-12.6c-.94-2.86,9.42-9.74,11.69-7.77l10,8.71a6.69,6.69,0,0,0,9.11-.32l8.88-8.88a6.69,6.69,0,0,0,.32-9.11l-8.65-9.94c-2-2.32,4.38-11.89,7.23-10.92L394,459.18a6.68,6.68,0,0,0,8.31-3.74l4.86-11.58a6.68,6.68,0,0,0-3.15-8.55l-11.85-6c-2.7-1.37-.27-13.55,2.77-13.77l13.24-.92a6.67,6.67,0,0,0,6.21-6.66v-7.45A.07.07,0,0,0,414.29,400.48Z" transform="translate(-166.56 -312.95)"/><path class="cls-3" d="M241.86,375.64a25.53,25.53,0,0,1-39.84,0h-4c-7.33,0-11.05,3.9-11.05,11.7,0,.65.09,25.64.19,26.29h-14.4c-.09-.65-.09-25.64-.09-26.29q0-24.1,24-25.36a16.17,16.17,0,0,1-.09-2.13,25.4,25.4,0,0,1,50.8,0,17.59,17.59,0,0,1-.09,2.13h6.68v13.66Zm-60.93-13.56a16.57,16.57,0,0,0-2.23-.1h2.23Zm41,8.82c7.34,0,11.05-3.71,11.05-11s-3.71-11.05-11.05-11.05-11,3.71-11,11.05S214.55,370.9,221.89,370.9Z" transform="translate(-166.56 -312.95)"/><path class="cls-3" d="M256.9,362V313h13.56v49h6.68v13.66H250.21V362Z" transform="translate(-166.56 -312.95)"/><path class="cls-3" d="M273.52,375.64V362h6.69v-2.13a25.35,25.35,0,0,1,25.35-25.36,24.94,24.94,0,0,1,14.58,4.65l-7.24,12.54a10.8,10.8,0,0,0-7.34-2.79c-7.34,0-11.05,3.62-11.05,11a15.67,15.67,0,0,0,.18,2.13h32.14v13.66Z" transform="translate(-166.56 -312.95)"/><path class="cls-3" d="M375,375.64a25.53,25.53,0,0,1-39.84,0H323.11V362h6.69a15.84,15.84,0,0,1-.1-2.13,25.4,25.4,0,0,1,50.8,0,17.59,17.59,0,0,1-.09,2.13h6.69v13.66Zm-20-4.74c7.34,0,11.05-3.71,11.05-11s-3.71-11.05-11.05-11.05-11,3.71-11,11.05S347.72,370.9,355.06,370.9Z" transform="translate(-166.56 -312.95)"/><path class="cls-3" d="M383.38,362h6.78V313h13.46v62.69H383.38Z" transform="translate(-166.56 -312.95)"/><rect class="cls-4" x="118.85" y="114.13" width="5.96" height="5.44"/><rect class="cls-4" x="110.87" y="114.13" width="5.96" height="5.44"/><path class="cls-5" d="M192.57,338.27H196a0,0,0,0,1,0,0v11.8a0,0,0,0,1,0,0h-5a0,0,0,0,1,0,0V339.81A1.54,1.54,0,0,1,192.57,338.27Z" transform="translate(-268.73 -230.44) rotate(-19.15)"/><path class="cls-5" d="M233.54,323.51h5a0,0,0,0,1,0,0v11.8a0,0,0,0,1,0,0h-3.45a1.54,1.54,0,0,1-1.54-1.54V323.51A0,0,0,0,1,233.54,323.51Z" transform="translate(400.49 250.25) rotate(160.85)"/><path class="cls-2" d="M238.87,334.06c-.05-.15-.09-.31-.14-.46A23.67,23.67,0,1,0,194,349.13c.05.15.11.3.17.45Z" transform="translate(-166.56 -312.95)"/><path class="cls-5" d="M202.59,322.11,210.2,344l12.65-4.4-7.6-21.9A24,24,0,0,0,208.6,319,24.44,24.44,0,0,0,202.59,322.11Z" transform="translate(-166.56 -312.95)"/><path class="cls-6" d="M189.52,341.56h55.42a.94.94,0,0,1,.94.94v3.17a.47.47,0,0,1-.47.47H189a.47.47,0,0,1-.47-.47V342.5a.94.94,0,0,1,.94-.94Z" transform="translate(-267.31 -222.68) rotate(-19.15)"/><path class="cls-7" d="M240.87,339.27l-45,15.63a1.27,1.27,0,0,1-1.63-.78h0l47.45-16.48h0A1.28,1.28,0,0,1,240.87,339.27Z" transform="translate(-166.56 -312.95)"/><path class="cls-6" d="M206.6,316.59h7.55a.38.38,0,0,1,.38.38v13.38a1.28,1.28,0,0,1-1.28,1.28h-5.74a1.28,1.28,0,0,1-1.28-1.28V317A.38.38,0,0,1,206.6,316.59Z" transform="translate(-261.22 -226.02) rotate(-19.15)"/><path class="cls-2" d="M202.26,449.6c-3.3-5.77-4.78-11.39-4.4-17.06a22.22,22.22,0,0,1,8.47-16.31,24.78,24.78,0,0,1,18.17-6l1.93.14-.75,15a13,13,0,0,0-1.94-.35c-7.87-1-12,2.38-12.45,10.58a22,22,0,0,0,.05,2.26c13.75,2.81,27.42,5,41.35,6.7q.85-29.25,1.72-58.5l13.35-.26q-.56,30-1.12,60c2.74.18,4.11.26,6.85.4-.09,6.72-.13,10.09-.22,16.81A357.23,357.23,0,0,1,202.26,449.6Zm44.65-22.08c-6-.5-9-.8-15-1.48a8,8,0,0,1-.26-2.64c.25-5.53,3.65-13.51,15.48-13l-.18,5c-3.79-.21-10.16,1.18-10.38,6.47,4.19.38,6.3.55,10.51.85Z" transform="translate(-166.56 -312.95)"/><path class="cls-2" d="M269.68,446c11,.49,21.72.68,32.69.56l-.3-34.47c6-.14,9-.23,15-.48q.53,25.61,1,51.19a304.8,304.8,0,0,1-48.72-.07C269.52,456,269.57,452.68,269.68,446Zm8.52,46.42c.06-6.8.09-10.21.16-17,6.31.39,9.47.49,15.78.51,0,6.87,0,10.3,0,17.17C287.79,493,284.59,492.9,278.2,492.41Zm21.41.65c0-6.88-.06-10.31-.11-17.19,6.32-.1,9.47-.24,15.77-.72l.3,17.1C309.2,492.79,306,493,299.61,493.06Z" transform="translate(-166.56 -312.95)"/><path class="cls-2" d="M350.29,442.27a22.54,22.54,0,0,0,.08-2.55c-.4-9.32-4.49-13.42-12.43-12.68a11.07,11.07,0,0,0-2,.3l-.55-16.57,1.94-.13c6.93-.45,13,2.1,18.2,7.28A28.61,28.61,0,0,1,364,437.43a35.41,35.41,0,0,1-4.62,19.23c-11.23,2.25-22.2,4-33.57,5.43-.17-6.73-.26-10.1-.43-16.83C335.39,444.4,340.38,443.8,350.29,442.27Z" transform="translate(-166.56 -312.95)"/><path class="cls-2" d="M368.53,384l13.18-.22q2,32.87,4.07,65.75c-5.32,1.71-8,2.5-13.4,4Q370.46,418.73,368.53,384Z" transform="translate(-166.56 -312.95)"/><rect class="cls-4" x="70.27" y="87.66" width="5.96" height="5.44"/><path class="cls-4" d="M250.64,406.93h-5.25V418.1c0,3.49-2.06,5.26-5.55,5.26-3.72,0-5.59-1.87-5.59-5.59a5.57,5.57,0,0,1,1.06-3.27l-3.71-3.75a10.83,10.83,0,0,0,8.24,17.87,10.17,10.17,0,0,0,9.37-5.41h4.12v-5.4h-2.69Z" transform="translate(-166.56 -312.95)"/><rect class="cls-4" x="174.39" y="114.13" width="5.96" height="5.44"/><rect class="cls-4" x="172" y="104.86" width="1.47" height="5.4"/><polygon class="cls-4" points="120.62 104.86 120.62 93.98 114.66 93.98 114.66 104.86 98.91 104.86 98.91 110.27 172 110.27 172 104.86 120.62 104.86"/><polygon class="cls-4" points="174.42 93.94 174.42 104.86 173.47 104.86 173.47 110.27 180.34 110.27 180.34 93.94 174.42 93.94"/></svg>