<svg xmlns="http://www.w3.org/2000/svg" xmlns:xlink="http://www.w3.org/1999/xlink" width="512" height="118" viewBox="0 0 512 118">
  <defs>
    <clipPath id="clip-path">
      <rect id="Rectangle_2" data-name="Rectangle 2" width="512" height="118" transform="translate(655 667)" fill="#fff" stroke="#707070" stroke-width="1"/>
    </clipPath>
    <clipPath id="clip-path-2">
      <rect id="Rectangle_2-2" data-name="Rectangle 2" width="226" height="118" transform="translate(436.835 235)" fill="#fff" stroke="#707070" stroke-width="1"/>
    </clipPath>
  </defs>
  <g id="Groupe_de_masques_2" data-name="Groupe de masques 2" transform="translate(-655 -667)" clip-path="url(#clip-path)">
    <g id="Groupe_de_masques_1" data-name="Groupe de masques 1" transform="translate(504.165 432)" clip-path="url(#clip-path-2)">
      <g id="artisan" transform="translate(559.674 278.962) rotate(-13)">
        <g id="Groupe_6" data-name="Groupe 6" transform="translate(19.619 76.758)">
          <g id="Groupe_5" data-name="Groupe 5" transform="translate(0 0)">
            <g id="Groupe_4" data-name="Groupe 4">
              <g id="Groupe_3" data-name="Groupe 3">
                <g id="Groupe_2" data-name="Groupe 2">
                  <g id="Groupe_1" data-name="Groupe 1">
                    <circle id="Ellipse_1" data-name="Ellipse 1" cx="1.418" cy="1.418" r="1.418" fill="#fff"/>
                  </g>
                </g>
              </g>
            </g>
          </g>
        </g>
        <path id="Tracé_1" data-name="Tracé 1" d="M91.1,56.084,88.32,54.239h0a2.509,2.509,0,0,0-3.433.633l-1.856-1.23A3.836,3.836,0,0,0,81.4,49.624L75.393,45.64c-5.66-3.754-10.976-3.561-14.968.542A2.478,2.478,0,0,0,62.3,50.377c2.325,0,3.478.507,3.781.986.314.5-.049,1.425-.292,1.934a3.2,3.2,0,0,0,.64,3.632l-1.424,2c-1.8-.851-2.873-.9-6.122-1.74V57a2.637,2.637,0,0,0-2.19-2.6l-3.9-.678a2.63,2.63,0,0,0-2.768,1.339L46.459,54.2a3.4,3.4,0,0,1-.509-1.7V47.116a16.037,16.037,0,0,0,7.027-11.937,4.216,4.216,0,0,0,3.961-4.237l-.013-3.173a4.247,4.247,0,0,0-1.207-2.944,21.969,21.969,0,0,0,1.22-6.547,5.47,5.47,0,0,0-1.419-3.685.177.177,0,0,1-.049-.119A6.575,6.575,0,0,0,51.4,8.331a.38.38,0,0,1-.212-.265,5.418,5.418,0,0,0-4.775-4.059,5.38,5.38,0,0,0-5.973-2.221.207.207,0,0,1-.221-.058,5.892,5.892,0,0,0-8.337,0,.208.208,0,0,1-.219.058A5.38,5.38,0,0,0,25.687,4.01a5.418,5.418,0,0,0-4.775,4.059.38.38,0,0,1-.211.265,6.574,6.574,0,0,0-4.074,6.143.179.179,0,0,1-.049.119,5.47,5.47,0,0,0-1.419,3.685,22.1,22.1,0,0,0,1.251,6.645,4.226,4.226,0,0,0-1.252,3.028l.013,3.173a4.208,4.208,0,0,0,4,4.2A16.02,16.02,0,0,0,26.145,47.1v5.409a3.4,3.4,0,0,1-.509,1.7l-3.563.856a2.63,2.63,0,0,0-2.768-1.339l-3.9.678a2.637,2.637,0,0,0-2.19,2.6v.187l-3.736.9A12.326,12.326,0,0,0,0,70.113V87.82a5.2,5.2,0,0,0,5.2,5.2H66.9a5.2,5.2,0,0,0,5.2-5.2V70.11a12.283,12.283,0,0,0-.675-4.022l2.523-4.1A3.252,3.252,0,0,0,77.9,61.68l1.732,1.149a2.511,2.511,0,0,0,.854,3.226L83.265,67.9a2.514,2.514,0,0,0,3.487-.707l5.055-7.623a2.519,2.519,0,0,0-.707-3.486ZM58.883,59.992a33.835,33.835,0,0,1,4.508,1.2l-4.508,6.331ZM52.42,56.423l3.738.649V71.347l-.184.259a20.811,20.811,0,0,0-3.555-.088V56.425Zm-6.4.479,2.614.628-2.889,4.4c-2.307,3.517-6.381,1.582-6.9,1.574Zm-2.145-1.728-7.83,7.212-7.832-7.21a6,6,0,0,0,.654-2.665V48.675a17.324,17.324,0,0,0,7.248,1.6h.031a17.338,17.338,0,0,0,7.076-1.591V52.51a6,6,0,0,0,.654,2.665ZM19.351,14.467a3.861,3.861,0,0,1,2.387-3.613,3.078,3.078,0,0,0,1.812-2.106,2.688,2.688,0,0,1,2.59-2.033,1.467,1.467,0,0,0,1.6-.8A2.667,2.667,0,0,1,30.905,4.4a2.928,2.928,0,0,0,2.965-.814,3.186,3.186,0,0,1,4.357,0,2.93,2.93,0,0,0,2.965.815A2.667,2.667,0,0,1,44.36,5.92a1.359,1.359,0,0,0,1.365.808A2.678,2.678,0,0,1,48.548,8.75a3.079,3.079,0,0,0,1.812,2.105,3.862,3.862,0,0,1,2.387,3.613A2.9,2.9,0,0,0,53.5,16.43h0a2.75,2.75,0,0,1,.712,1.853,19.494,19.494,0,0,1-1.11,5.768,13.815,13.815,0,0,0-4.625.892l.023-5.635a5.858,5.858,0,0,0-5.794-5.9,8.778,8.778,0,0,0-2.692.408c-5.044,1.622-7.736-.408-10.574-.408h-.05a5.858,5.858,0,0,0-5.8,5.9l.023,5.635a13.808,13.808,0,0,0-4.625-.892,19.407,19.407,0,0,1-1.109-5.768c0-1.85,1.476-1.908,1.468-3.815Zm2.455,19.462A1.363,1.363,0,0,0,20.444,32.6h-.006l-1.07,0h-.006A1.483,1.483,0,0,1,17.9,31.114l-.013-3.172a1.5,1.5,0,0,1,.557-1.18c1.62.025,4,.351,4.719,1.061a1.872,1.872,0,0,0,3.188-1.342l-.03-7.182a3.13,3.13,0,0,1,3.165-3.167c2.2,0,5.566,2.143,11.368.278a6.32,6.32,0,0,1,1.844-.278A3.131,3.131,0,0,1,45.779,19.3l-.03,7.182a1.872,1.872,0,0,0,3.188,1.342c.732-.725,3.235-1.053,4.859-1.061a1.516,1.516,0,0,1,.405,1.025l.013,3.173a1.486,1.486,0,0,1-1.458,1.507l-1.07,0A1.363,1.363,0,0,0,50.33,33.81c-.139,8.157-6.894,13.625-14.205,13.745-7.271-.058-14.111-5.426-14.319-13.623ZM26.072,56.9l7.172,6.606c-.577.01-4.58,1.962-6.9-1.574l-2.889-4.4ZM22.4,60.885l1.669,2.544A7.493,7.493,0,0,0,30.326,66.8c1.424,0,2.062-.336,5.723-1.164,3.676.831,4.3,1.164,5.724,1.164a7.493,7.493,0,0,0,6.256-3.372L49.7,60.884V71.519H22.4ZM8.608,84.927v5.364H5.2a2.475,2.475,0,0,1-2.472-2.472V70.11a9.61,9.61,0,0,1,7.388-9.372l3.1-.745v2.263a1.362,1.362,0,1,0,2.725,0V57.075l3.738-.649v15.1H17.014a4.155,4.155,0,0,0-1.078.142V68.625a1.362,1.362,0,1,0-2.725,0v5.48a4.135,4.135,0,0,0-.183.59,7.336,7.336,0,0,1-1.762,3.386,10.121,10.121,0,0,0-2.659,6.847Zm52.156,5.364H56.507l4.13-6.7a7.386,7.386,0,0,1,.126,1.34Zm-7.457,0H46.013l3.034-4.259a1.362,1.362,0,1,0-2.219-1.581l-4.16,5.84H11.333V84.929c0-4.685,3.266-4.791,4.355-9.634a1.362,1.362,0,0,1,1.326-1.047H54.1l-3.548,4.977a1.362,1.362,0,0,0,2.219,1.581l8.407-11.8L64.9,71.476,53.309,90.291Zm16.064-2.472A2.475,2.475,0,0,1,66.9,90.291H63.488V84.928a10.149,10.149,0,0,0-.986-4.361l6.848-11.113c.047.7.014-.354.025,18.366ZM66.333,69.152l-3.574-2.371,5.905-8.29,3.008,1.995Zm9.821-9.59a.524.524,0,0,1-.726.147l-7-4.641a.472.472,0,0,1-.18-.589c.866-1.808.912-3.345.137-4.569-.894-1.412-2.766-2.166-5.569-2.246,2.991-2.724,6.713-2.641,11.073.251L79.9,51.9a1.117,1.117,0,0,1,.33,1.525l0,0c-.009.014-.018.028-.026.044Zm3.334-.1,2.257-3.4,1.632,1.082-2.257,3.4Zm5.109,6.05L82.166,63.9l4.824-7.274,2.431,1.613Z" transform="translate(0 0)" fill="#fff"/>
      </g>
    </g>
  </g>
</svg>
